<svg width="16" height="18" viewBox="0 0 16 18" fill="none" xmlns="http://www.w3.org/2000/svg">
<path fill-rule="evenodd" clip-rule="evenodd" d="M6.44444 2C6.2971 2 6.15579 2.05853 6.05161 2.16272C5.94742 2.26691 5.88889 2.40821 5.88889 2.55556V3.11111H10.1111V2.55556C10.1111 2.40821 10.0526 2.26691 9.94839 2.16272C9.84421 2.05853 9.7029 2 9.55556 2H6.44444ZM12.1111 3.11111V2.55556C12.1111 1.87778 11.8419 1.22776 11.3626 0.748505C10.8833 0.269245 10.2333 0 9.55556 0H6.44444C5.76667 0 5.11665 0.269245 4.63739 0.748505C4.15813 1.22776 3.88889 1.87778 3.88889 2.55556V3.11111H1C0.447715 3.11111 0 3.55883 0 4.11111C0 4.6634 0.447715 5.11111 1 5.11111H1.55556V15C1.55556 15.6778 1.8248 16.3278 2.30406 16.8071C2.78332 17.2863 3.43334 17.5556 4.11111 17.5556H11.8889C12.5667 17.5556 13.2167 17.2863 13.6959 16.8071C14.1752 16.3278 14.4444 15.6778 14.4444 15V5.11111H15C15.5523 5.11111 16 4.6634 16 4.11111C16 3.55883 15.5523 3.11111 15 3.11111H12.1111ZM3.55556 5.11111V15C3.55556 15.1473 3.61409 15.2887 3.71827 15.3928C3.82246 15.497 3.96377 15.5556 4.11111 15.5556H11.8889C12.0362 15.5556 12.1775 15.497 12.2817 15.3928C12.3859 15.2886 12.4444 15.1473 12.4444 15V5.11111H3.55556Z" fill="#FCFDFC"/>
</svg>
